<svg xmlns="http://www.w3.org/2000/svg" xmlns:xlink="http://www.w3.org/1999/xlink" viewBox="0 0 592.32 343.67"><defs><style>.cls-1{fill:url(#Degradado_sin_nombre_58);}.cls-2{fill:#fff;}</style><linearGradient id="Degradado_sin_nombre_58" x1="296.16" y1="60.96" x2="296.16" y2="343.67" gradientUnits="userSpaceOnUse"><stop offset="0.13" stop-color="#fff"/><stop offset="0.43" stop-color="#fff" stop-opacity="0.84"/><stop offset="1" stop-color="#fff" stop-opacity="0"/></linearGradient></defs><title>XII_light</title><g id="Capa_2" data-name="Capa 2"><g id="texto"><path class="cls-1" d="M297,64.92h16.63a28.86,28.86,0,0,1,10.49,1.78q4.55,1.78,7.12,7.13t2.58,16.83V314q0,11.08-2.58,16.63t-7.12,7.33a28.86,28.86,0,0,1-10.49,1.78H297v4h136.6v-4H416.93a29.29,29.29,0,0,1-10.3-1.78q-4.75-1.79-7.32-7.33T396.73,314V90.66q0-11.47,2.58-16.83a13.3,13.3,0,0,1,7.32-7.13,29.29,29.29,0,0,1,10.3-1.78h16.63V61H297ZM268.05,336.54q-5.94-3.17-12.67-12.08T238,298.13L165.11,177.77l61-84.74a138.68,138.68,0,0,1,14.26-16.82A38.46,38.46,0,0,1,253.6,67.5a44.57,44.57,0,0,1,15.64-2.58h5.15V61H185.7v4h14.65q13.85,0,20.39,2.58t6.53,8.9q0,4-3,10.1a105.06,105.06,0,0,1-8.51,14.06L162.73,174.2,118,99.76Q114,93,110.86,86.7T107.7,76.4c0-3.16,1.64-5.87,5-8.11s9.43-3.37,18.41-3.37h8.31V61H8.31v4h.8a40.27,40.27,0,0,1,13.46,2,27.4,27.4,0,0,1,10.1,6.53A65.54,65.54,0,0,1,42,85.91l78.4,129.47L51.47,311.2a119.54,119.54,0,0,1-14,17A39,39,0,0,1,24,337.13a44.57,44.57,0,0,1-15.64,2.58H0v4H94.63v-4H77.21q-13.47,0-20.19-2.58t-6.74-8.91a17.65,17.65,0,0,1,1.39-6.33,63,63,0,0,1,4-8.12q2.57-4.54,6.14-9.7l61-84.73,48.31,80Q179,312,181.54,317.14a21.52,21.52,0,0,1,2.57,9.5q0,6.35-5.94,9.7t-17.81,3.37h-9.11v4H281.91v-4h-.79A27.25,27.25,0,0,1,268.05,336.54Zm290-262.71a13.3,13.3,0,0,1,7.32-7.13,29.27,29.27,0,0,1,10.29-1.78h16.63V61H455.72v4h16.63a28.88,28.88,0,0,1,10.5,1.78q4.54,1.78,7.12,7.13t2.58,16.83V314q0,11.08-2.58,16.63t-7.12,7.33a28.88,28.88,0,0,1-10.5,1.78H455.72v4h136.6v-4H575.69a29.27,29.27,0,0,1-10.29-1.78q-4.75-1.79-7.32-7.33T555.5,314V90.66Q555.5,79.19,558.08,73.83Z"/><path class="cls-2" d="M181,23.38,173.57.4H168l10.53,29.37h4.94L194,.4h-5.61ZM11.44.4.35,29.77H5.66L8,22.94H19.41l2.4,6.83h5.33L16,.4Zm-2,18.42L13.72,6.64,18,18.82Zm116.73,11h5.09V.4H126.2ZM235.49,16.66h12.07v-4H235.49V4.52h14V.4H230.39V29.77h19.2V25.7h-14.1ZM81.75,21.32,68.62.4h-5.1V29.77h5.1V8.94L81.71,29.77h5.11V.4H81.75Zm401.93-7.1a8.3,8.3,0,0,0,1.42-4.93,8.08,8.08,0,0,0-2.77-6.61Q479.57.4,474.49.4H464.16V29.77h5.1V18.48H475l5.89,11.29h5.47v-.26l-6.6-12.23A9,9,0,0,0,483.68,14.22Zm-9.17.14h-5.25V4.52h5.39a5.71,5.71,0,0,1,4,1.33A4.81,4.81,0,0,1,480,9.5a4.53,4.53,0,0,1-1.45,3.56A5.81,5.81,0,0,1,474.51,14.36Zm48.78,15.41h5.09V.4h-5.09ZM589.61,6.69a11.32,11.32,0,0,0-4.29-5,12.57,12.57,0,0,0-12.73,0,11.46,11.46,0,0,0-4.29,5,17.78,17.78,0,0,0-1.53,7.58V16a17.46,17.46,0,0,0,1.55,7.44,11.41,11.41,0,0,0,4.31,5,12.49,12.49,0,0,0,12.75,0,11.3,11.3,0,0,0,4.27-5,18.1,18.1,0,0,0,1.49-7.57V14.22A17.75,17.75,0,0,0,589.61,6.69ZM586,15.86c0,3.3-.61,5.82-1.83,7.54A6,6,0,0,1,579,26a6.08,6.08,0,0,1-5.24-2.64c-1.26-1.76-1.88-4.26-1.88-7.48v-1.7c0-3.16.66-5.6,1.9-7.33a6.52,6.52,0,0,1,10.41,0c1.23,1.73,1.85,4.23,1.85,7.48ZM412.09.4,401,29.77h5.31l2.38-6.83h11.37l2.4,6.83h5.33L416.67.4Zm-2,18.42,4.26-12.18,4.25,12.18Zm-103.79-4.6a8.3,8.3,0,0,0,1.42-4.93A8.08,8.08,0,0,0,305,2.68Q302.21.4,297.13.4H286.8V29.77h5.1V18.48h5.69l5.89,11.29H309v-.26l-6.6-12.23A9,9,0,0,0,306.32,14.22Zm-9.17.14H291.9V4.52h5.39a5.71,5.71,0,0,1,4,1.33,4.81,4.81,0,0,1,1.34,3.65,4.53,4.53,0,0,1-1.45,3.56A5.81,5.81,0,0,1,297.15,14.36Zm64.92.88a22.45,22.45,0,0,0-5.51-2.32,17.33,17.33,0,0,1-4.92-2.1,3.22,3.22,0,0,1-1.49-2.69,3.58,3.58,0,0,1,1.38-3,6.24,6.24,0,0,1,3.88-1.07,6,6,0,0,1,4.13,1.31A4.58,4.58,0,0,1,361,9h5.08a8.19,8.19,0,0,0-1.37-4.63,8.94,8.94,0,0,0-3.77-3.22A12.73,12.73,0,0,0,355.45,0a11.72,11.72,0,0,0-7.51,2.3A7.15,7.15,0,0,0,345,8.15c0,2.7,1.34,4.9,4,6.58a24.18,24.18,0,0,0,5.65,2.38,16.68,16.68,0,0,1,4.91,2.11,3.55,3.55,0,0,1,1.36,3,3.49,3.49,0,0,1-1.34,2.85,6.3,6.3,0,0,1-4,1.08,7.25,7.25,0,0,1-4.75-1.37,4.74,4.74,0,0,1-1.65-3.87h-5.1a8.1,8.1,0,0,0,1.48,4.84A9.81,9.81,0,0,0,349.78,29a14.43,14.43,0,0,0,5.86,1.18A12.24,12.24,0,0,0,363.27,28a7,7,0,0,0,2.81-5.84,7.8,7.8,0,0,0-1-3.94A8.74,8.74,0,0,0,362.07,15.24Z"/></g></g></svg>