<svg xmlns="http://www.w3.org/2000/svg" xmlns:xlink="http://www.w3.org/1999/xlink" viewBox="0 0 600.5 343.67"><defs><style>.cls-1{fill:url(#Degradado_sin_nombre_89);}</style><linearGradient id="Degradado_sin_nombre_89" x1="296.16" y1="60.96" x2="296.16" y2="343.67" gradientUnits="userSpaceOnUse"><stop offset="0.13"/><stop offset="0.43" stop-opacity="0.84"/><stop offset="0.63" stop-color="#3d3c3c" stop-opacity="0.62"/><stop offset="0.9" stop-color="#c7c5c4" stop-opacity="0.12"/><stop offset="1" stop-color="#fff" stop-opacity="0"/></linearGradient></defs><title>XII_dark</title><g id="Capa_2" data-name="Capa 2"><g id="texto"><path class="cls-1" d="M268.05,336.54q-5.94-3.17-12.67-12.08T238,298.13L165.11,177.77l61-84.74a138.68,138.68,0,0,1,14.26-16.82A38.46,38.46,0,0,1,253.6,67.5a44.57,44.57,0,0,1,15.64-2.58h5.15V61H185.7v4h14.65q13.85,0,20.39,2.58t6.53,8.9q0,4-3,10.1a105.06,105.06,0,0,1-8.51,14.06L162.73,174.2,118,99.76Q114,93,110.86,86.7T107.7,76.4c0-3.16,1.64-5.87,5-8.11s9.43-3.37,18.41-3.37h8.31V61H8.31v4h.8a40.27,40.27,0,0,1,13.46,2,27.4,27.4,0,0,1,10.1,6.53A65.54,65.54,0,0,1,42,85.91l78.4,129.47L51.47,311.2a119.54,119.54,0,0,1-14,17A39,39,0,0,1,24,337.13a44.57,44.57,0,0,1-15.64,2.58H0v4H94.63v-4H77.21q-13.47,0-20.19-2.58t-6.74-8.91a17.65,17.65,0,0,1,1.39-6.33,63,63,0,0,1,4-8.12q2.57-4.54,6.14-9.7l61-84.73,48.31,80Q179,312,181.54,317.14a21.52,21.52,0,0,1,2.57,9.5q0,6.35-5.94,9.7t-17.81,3.37h-9.11v4H281.91v-4h-.79A27.25,27.25,0,0,1,268.05,336.54ZM297,64.92h16.63a28.86,28.86,0,0,1,10.49,1.78q4.55,1.78,7.12,7.13t2.58,16.83V314q0,11.08-2.58,16.63t-7.12,7.33a28.86,28.86,0,0,1-10.49,1.78H297v4h136.6v-4H416.93a29.29,29.29,0,0,1-10.3-1.78q-4.75-1.79-7.32-7.33T396.73,314V90.66q0-11.47,2.58-16.83a13.3,13.3,0,0,1,7.32-7.13,29.29,29.29,0,0,1,10.3-1.78h16.63V61H297Zm261.12,8.91a13.3,13.3,0,0,1,7.32-7.13,29.27,29.27,0,0,1,10.29-1.78h16.63V61H455.72v4h16.63a28.88,28.88,0,0,1,10.5,1.78q4.54,1.78,7.12,7.13t2.58,16.83V314q0,11.08-2.58,16.63t-7.12,7.33a28.88,28.88,0,0,1-10.5,1.78H455.72v4h136.6v-4H575.69a29.27,29.27,0,0,1-10.29-1.78q-4.75-1.79-7.32-7.33T555.5,314V90.66Q555.5,79.19,558.08,73.83Z"/><path d="M190.32,23.38,182.94.4h-5.59l10.53,29.37h4.94L203.39.4h-5.61Zm-54.76,6.39h5.09V.4h-5.09ZM91.12,21.32,78,.4h-5.1V29.77H78V8.94l13.1,20.83h5.1V.4H91.12ZM493,14.22a8.23,8.23,0,0,0,1.42-4.93,8.1,8.1,0,0,0-2.76-6.61C489.85,1.16,487.24.4,483.85.4H473.52V29.77h5.11V18.48h5.68l5.9,11.29h5.46v-.26l-6.6-12.23A9,9,0,0,0,493,14.22Zm-9.17.14h-5.24V4.52H484a5.73,5.73,0,0,1,4,1.33,4.85,4.85,0,0,1,1.34,3.65,4.56,4.56,0,0,1-1.45,3.56A5.84,5.84,0,0,1,483.87,14.36ZM20.81.4,9.71,29.77H15l2.38-6.83H28.78l2.4,6.83H36.5L25.39.4Zm-2,18.42L23.09,6.64l4.25,12.18ZM599,6.69a11.32,11.32,0,0,0-4.29-5,12.56,12.56,0,0,0-12.72,0,11.48,11.48,0,0,0-4.3,5,17.78,17.78,0,0,0-1.52,7.58V16a17.32,17.32,0,0,0,1.54,7.44,11.37,11.37,0,0,0,4.32,5,12.47,12.47,0,0,0,12.74,0,11.24,11.24,0,0,0,4.27-5,17.94,17.94,0,0,0,1.49-7.57V14.22A17.75,17.75,0,0,0,599,6.69Zm-3.57,9.17c0,3.3-.61,5.82-1.82,7.54a6.54,6.54,0,0,1-10.45-.06c-1.26-1.76-1.89-4.26-1.89-7.48v-1.7c0-3.16.66-5.6,1.91-7.33a6.51,6.51,0,0,1,10.4,0c1.24,1.73,1.85,4.23,1.85,7.48Zm-350.54.8h12.06v-4H244.86V4.52h13.95V.4H239.75V29.77H259V25.7h-14.1ZM421.45.4l-11.1,29.37h5.31L418,22.94h11.38l2.4,6.83h5.32L426,.4Zm-2,18.42,4.26-12.18L428,18.82Zm113.19,11h5.08V.4h-5.08Zm-217-15.55a8.23,8.23,0,0,0,1.42-4.93,8.1,8.1,0,0,0-2.76-6.61C312.49,1.16,309.88.4,306.49.4H296.16V29.77h5.11V18.48H307l5.89,11.29h5.47v-.26l-6.6-12.23A9,9,0,0,0,315.68,14.22Zm-9.17.14h-5.24V4.52h5.38a5.73,5.73,0,0,1,4,1.33A4.85,4.85,0,0,1,312,9.5a4.53,4.53,0,0,1-1.46,3.56A5.8,5.8,0,0,1,306.51,14.36Zm64.92.88a22.53,22.53,0,0,0-5.5-2.32,17.28,17.28,0,0,1-4.93-2.1,3.22,3.22,0,0,1-1.49-2.69,3.58,3.58,0,0,1,1.38-3,6.25,6.25,0,0,1,3.89-1.07,5.94,5.94,0,0,1,4.12,1.31A4.58,4.58,0,0,1,370.34,9h5.09a8.27,8.27,0,0,0-1.37-4.63,9,9,0,0,0-3.78-3.22A12.72,12.72,0,0,0,364.82,0a11.75,11.75,0,0,0-7.52,2.3,7.14,7.14,0,0,0-2.89,5.85c0,2.7,1.34,4.9,4,6.58a24.18,24.18,0,0,0,5.65,2.38A16.56,16.56,0,0,1,369,19.22a3.55,3.55,0,0,1,1.36,3A3.46,3.46,0,0,1,369,25.06a6.28,6.28,0,0,1-4,1.08,7.2,7.2,0,0,1-4.74-1.37,4.75,4.75,0,0,1-1.66-3.87h-5.1A8.1,8.1,0,0,0,355,25.74,9.87,9.87,0,0,0,359.14,29,14.43,14.43,0,0,0,365,30.18,12.22,12.22,0,0,0,372.63,28a7,7,0,0,0,2.82-5.84,7.8,7.8,0,0,0-1-3.94A8.74,8.74,0,0,0,371.43,15.24Z"/></g></g></svg>