<svg xmlns="http://www.w3.org/2000/svg" viewBox="0 0 1420.7 756"><defs><style>.cls-1{fill:#fff;}</style></defs><g id="Capa_2" data-name="Capa 2"><g id="Capa_1-2" data-name="Capa 1"><path class="cls-1" d="M535.66,756h-173V205.38L192.81,255V124l327-113h15.86Z"/><path class="cls-1" d="M1280.26,756H760.35V643.47L999.84,391.56q88.51-100.85,88.53-160.25,0-48.13-21-73.22T1006.49,133q-39.42,0-64,33.55T918,250.3H745q0-68.58,34.28-126.69t95.19-90.84Q935.36,0,1010.59,0q120.75,0,186,55.8T1261.84,216a232.84,232.84,0,0,1-16.38,85.73q-16.38,41.73-50.92,87.55t-111.3,122.61L987,623h293.22Z"/><path d="M0,503.7v-2.15H7.31a16.52,16.52,0,0,0,6.77-1.29,11.75,11.75,0,0,0,5.06-4.73A38,38,0,0,0,23,486.28L61.49,350.19H91l42.13,137.6a31.61,31.61,0,0,0,3.55,8.06,12.83,12.83,0,0,0,4.41,4.41,12,12,0,0,0,5.81,1.29h1.29v2.15H78.48v-2.15h9.24q4.52,0,6.24-1.94a7.51,7.51,0,0,0,1.72-5.16,14.53,14.53,0,0,0-.43-3.44c-.29-1.14-.58-2.32-.86-3.54s-.58-2.48-.87-3.77l-9.67-36.33H36.12l-9,32.68a49.85,49.85,0,0,0-1.61,5.8c-.36,1.72-.68,3.3-1,4.73a19.78,19.78,0,0,0-.43,3.87q0,3.66,1.83,5.38t5.69,1.72H45.15v2.15Zm36.77-58.48H83.21l-15.48-58.7C67,383.8,66.25,381,65.47,378s-1.58-6-2.37-9.24-1.61-6.56-2.47-10a45.61,45.61,0,0,1-1.4,7.09c-.64,2.3-1.29,4.59-1.93,6.88s-1.26,4.52-1.83,6.67-1.15,4.3-1.72,6.45Z"/><path d="M152.22,503.7v-2.15h11a16.5,16.5,0,0,0,6.67-1.08,7,7,0,0,0,3.55-4.08,23.12,23.12,0,0,0,1.18-8.17V364.81a21.2,21.2,0,0,0-1.08-7.63,6.93,6.93,0,0,0-3.11-3.77,10.89,10.89,0,0,0-5.06-1.07H152.22v-2.15H209l64.5,114.38V364.81a25.49,25.49,0,0,0-.86-7.42,6.54,6.54,0,0,0-2.9-3.87,10.54,10.54,0,0,0-5.27-1.18h-15v-2.15h50.31v2.15H285.09a10.52,10.52,0,0,0-5.27,1.18,7.54,7.54,0,0,0-3.12,4.19,24.43,24.43,0,0,0-1.07,8v138H257.35l-80.62-143v127.5a35.25,35.25,0,0,0,.75,8.17,5.85,5.85,0,0,0,2.8,4.08,11.78,11.78,0,0,0,5.48,1.08h15.05v2.15Z"/><path d="M305.3,503.7v-2.15h9.46a8.28,8.28,0,0,0,4.62-1.08,6.63,6.63,0,0,0,2.47-3.44,19.49,19.49,0,0,0,.86-6.45V364.38a24.45,24.45,0,0,0-.86-7.2,6.81,6.81,0,0,0-2.47-3.77,8.37,8.37,0,0,0-4.62-1.07H305.3v-2.15h73.1v2.15h-9.89a7.89,7.89,0,0,0-4.52,1.18,6.63,6.63,0,0,0-2.47,3.87,27.77,27.77,0,0,0-.75,7.2V490.15a24.47,24.47,0,0,0,.75,6.67,6,6,0,0,0,2.47,3.65,8.4,8.4,0,0,0,4.52,1.08h9.89v2.15Z"/><path d="M396.67,362.23a22.21,22.21,0,0,0-2.47-6,7.7,7.7,0,0,0-3.44-3,11.85,11.85,0,0,0-4.62-.86h-4.09v-2.15h68.59v2.15h-9.46q-3.66,0-5.06,1.4a5.7,5.7,0,0,0-1.39,4.19,23.84,23.84,0,0,0,.21,2.79c.14,1.15.36,2.44.65,3.87s.64,2.94,1.07,4.52l19.57,74q1.06,3.44,2.47,9.14T461.49,464q1.39,6.14,2.69,11.5a60.67,60.67,0,0,1,1.51,8q1.29-5.6,2.58-10.43T471,462.53q1.4-5.7,3.12-13.23l18.71-72q1.07-4.72,1.82-7.85a38.21,38.21,0,0,0,1-5.48c.14-1.58.22-3,.22-4.3q0-3.87-2.48-5.59t-8.49-1.72h-10.1v-2.15h43.21v2.15h-6.66a16.77,16.77,0,0,0-6.13,1,7.86,7.86,0,0,0-4,3.54,37.76,37.76,0,0,0-3,7.31L462.46,503.7H438.17Z"/><path d="M522,503.7v-2.15h7.1a12.81,12.81,0,0,0,5.37-1.08,7.42,7.42,0,0,0,3.66-3.76,17.43,17.43,0,0,0,1.29-7.42V365.67q0-6-1.4-8.82a6.91,6.91,0,0,0-3.76-3.65,15.1,15.1,0,0,0-5.16-.86H522v-2.15H634l1.29,40.2h-2.15l-.65-7.31q-1.08-11.38-4.73-18.06a21.44,21.44,0,0,0-10.85-9.67q-7.22-3-19-3H577.27v70.09H625v2.15H577.27v77h27.3q11.4,0,18.6-3a22.38,22.38,0,0,0,11.07-9.78q3.87-6.78,4.73-18.17l.43-7.1h2.15l-1.29,40.21Z"/><path d="M650.37,503.7v-2.15h7.31a12.63,12.63,0,0,0,5.48-1.08,7.15,7.15,0,0,0,3.44-3.65,18.89,18.89,0,0,0,1.18-7.53V364.81a18.06,18.06,0,0,0-1.29-7.63,7.62,7.62,0,0,0-3.55-3.77,12.2,12.2,0,0,0-5.26-1.07h-7.31v-2.15H719q21.28,0,33.76,4.94t17.95,14.09q5.48,9.13,5.48,21.6,0,12.26-3.87,20.21a32.28,32.28,0,0,1-10.43,12.58,48.14,48.14,0,0,1-15.15,7L771,475.75q4.95,9.24,8.06,14.4t4.84,7.64a10.29,10.29,0,0,0,2.9,3.11,4.46,4.46,0,0,0,2.05.65h.42v2.15h-9.46a148,148,0,0,1-17-.86,46.79,46.79,0,0,1-12.69-3.12,27.65,27.65,0,0,1-9.24-6.23,36,36,0,0,1-6.67-10L711,432.1h-5v57.19a22.37,22.37,0,0,0,1,7.53,6.4,6.4,0,0,0,3,3.65,10.69,10.69,0,0,0,5.05,1.08h4.73v2.15ZM714.22,430q7.95,0,12.58-4t6.66-12.58q2-8.59,2-22.36,0-14.4-2.14-22.68t-6.88-12.15q-4.74-3.87-12.47-3.87h-8V430Z"/><path d="M843.43,505.85q-15.27,0-25-2.9t-15-7.53a24.85,24.85,0,0,1-7.2-9.78,28.14,28.14,0,0,1-1.93-9.89q0-8.6,3.54-13.33a18.91,18.91,0,0,1,9.36-6.67,38.47,38.47,0,0,1,12.25-1.93q0,16.77,3.12,27.84t9.67,16.45q6.55,5.37,16.67,5.37,11.61,0,17.73-6.55t6.13-18.39q0-11.18-4.94-18a41,41,0,0,0-13.44-11.5q-8.5-4.72-19.46-9.68A122.78,122.78,0,0,1,818.49,430,53,53,0,0,1,807,419.42a40.88,40.88,0,0,1-6.67-12.26,44.72,44.72,0,0,1-2.25-14.4q0-14.19,6.88-24.19a44,44,0,0,1,18.49-15.26,62.28,62.28,0,0,1,26-5.27q15.27,0,25,4t14.4,10.1a21.27,21.27,0,0,1,4.63,13,15.69,15.69,0,0,1-6.13,12.58q-6.14,5.06-21.61,5.05,0-22.14-4.94-32.36t-15.91-10.21a22.59,22.59,0,0,0-10,2.36,19.07,19.07,0,0,0-8,7.53q-3.11,5.16-3.11,13.54A27.21,27.21,0,0,0,827.52,388q3.66,6,11.93,11.18a208.72,208.72,0,0,0,22.26,11.61q13.11,5.81,21.17,12.58a45.64,45.64,0,0,1,12,14.94q4,8.18,4,19.35,0,14.63-6.88,25.37a46.3,46.3,0,0,1-19.24,16.77Q860.42,505.85,843.43,505.85Z"/><path d="M903,503.7v-2.15h7.31a16.52,16.52,0,0,0,6.77-1.29,11.68,11.68,0,0,0,5-4.73,37.59,37.59,0,0,0,3.87-9.25l38.49-136.09h29.45l42.14,137.6a31.61,31.61,0,0,0,3.55,8.06,12.83,12.83,0,0,0,4.41,4.41,12,12,0,0,0,5.8,1.29h1.29v2.15H981.46v-2.15h9.25q4.51,0,6.23-1.94a7.46,7.46,0,0,0,1.72-5.16,14,14,0,0,0-.43-3.44c-.28-1.14-.57-2.32-.86-3.54s-.57-2.48-.86-3.77l-9.67-36.33H939.11l-9,32.68a49.85,49.85,0,0,0-1.61,5.8c-.36,1.72-.68,3.3-1,4.73a19.78,19.78,0,0,0-.43,3.87q0,3.66,1.83,5.38t5.69,1.72h13.55v2.15Zm36.76-58.48h46.44l-15.48-58.7c-.71-2.72-1.47-5.55-2.25-8.49s-1.58-6-2.37-9.24-1.61-6.56-2.47-10a45.61,45.61,0,0,1-1.4,7.09c-.64,2.3-1.29,4.59-1.93,6.88s-1.26,4.52-1.83,6.67-1.15,4.3-1.72,6.45Z"/><path d="M1055.21,503.7v-2.15h7.31a12.6,12.6,0,0,0,5.48-1.08,7.11,7.11,0,0,0,3.44-3.65,18.71,18.71,0,0,0,1.18-7.53V364.81a18.06,18.06,0,0,0-1.29-7.63,7.64,7.64,0,0,0-3.54-3.77,12.27,12.27,0,0,0-5.27-1.07h-7.31v-2.15h68.58q21.29,0,33.76,4.94t18,14.09q5.49,9.13,5.48,21.6,0,12.26-3.87,20.21a32.26,32.26,0,0,1-10.42,12.58,48.3,48.3,0,0,1-15.16,7l24.29,45.15q5,9.24,8.07,14.4c2.07,3.44,3.69,6,4.83,7.64a10.29,10.29,0,0,0,2.91,3.11,4.39,4.39,0,0,0,2,.65h.43v2.15h-9.46a148.16,148.16,0,0,1-17-.86,46.62,46.62,0,0,1-12.68-3.12,27.59,27.59,0,0,1-9.25-6.23,35.74,35.74,0,0,1-6.66-10l-23.22-51.39h-4.95v57.19a22.64,22.64,0,0,0,1,7.53,6.48,6.48,0,0,0,3,3.65,10.72,10.72,0,0,0,5.05,1.08h4.73v2.15ZM1119.06,430q8,0,12.58-4t6.67-12.58q2-8.59,2-22.36,0-14.4-2.15-22.68t-6.88-12.15q-4.72-3.87-12.47-3.87h-8V430Z"/><path d="M1198.4,503.7v-2.15h9.46a8.31,8.31,0,0,0,4.62-1.08A6.68,6.68,0,0,0,1215,497a19.49,19.49,0,0,0,.86-6.45V364.38a24.45,24.45,0,0,0-.86-7.2,6.86,6.86,0,0,0-2.47-3.77,8.4,8.4,0,0,0-4.62-1.07h-9.46v-2.15h73.1v2.15h-9.89a7.89,7.89,0,0,0-4.52,1.18,6.63,6.63,0,0,0-2.47,3.87,27.34,27.34,0,0,0-.75,7.2V490.15a24.08,24.08,0,0,0,.75,6.67,6,6,0,0,0,2.47,3.65,8.4,8.4,0,0,0,4.52,1.08h9.89v2.15Z"/><path d="M1353.19,505.85q-22.57,0-37.73-9.89t-22.57-27.74q-7.42-17.84-7.42-41.71t7.42-41.49a58.86,58.86,0,0,1,22.57-27.41q15.16-9.78,38-9.79,21.71,0,36.66,9.79t22.79,27.52q7.85,17.73,7.84,41.6t-7.84,41.6Q1405,486.08,1390,496T1353.19,505.85Zm0-2.15q7.95,0,13.23-3.76t8.49-12.37q3.22-8.6,4.51-23.54t1.29-37.3q0-22.14-1.29-37.09t-4.51-23.54q-3.23-8.6-8.49-12.36a21.82,21.82,0,0,0-13-3.77,22.32,22.32,0,0,0-13.12,3.77q-5.37,3.76-8.7,12.36t-4.73,23.54q-1.41,15-1.4,37.09,0,22.36,1.4,37.3t4.62,23.65q3.23,8.71,8.49,12.36T1353.19,503.7Z"/></g></g></svg>