<?xml version="1.0" encoding="utf-8"?>
<!-- Generator: Adobe Illustrator 26.1.0, SVG Export Plug-In . SVG Version: 6.00 Build 0)  -->
<svg version="1.1" xmlns="http://www.w3.org/2000/svg" xmlns:xlink="http://www.w3.org/1999/xlink" x="0px" y="0px"
	 viewBox="0 0 2000 2000" style="enable-background:new 0 0 2000 2000;" xml:space="preserve">
<style type="text/css">
	.st0{display:none;}
	.st1{display:inline;fill:#FFFFFF;}
	.st2{fill:#4D4D4D;}
	.st3{fill:#FFFFFF;}
</style>
<g id="Capa_2">
</g>
<g id="Capa_1">
	<g>
		<g class="st0">
			<path class="st1" d="M824.9,1338h-173V787.4L482.1,837V706l327-113h15.9V1338z"/>
			<path class="st1" d="M1569.5,1338h-519.9v-112.5l239.5-251.9c59-67.2,88.5-120.7,88.5-160.2c0-32.1-7-56.5-21-73.2
				c-14-16.7-34.3-25.1-60.9-25.1c-26.3,0-47.6,11.2-64,33.5c-16.4,22.4-24.6,50.3-24.6,83.8h-173c0-45.7,11.4-88,34.3-126.7
				c22.9-38.7,54.6-69,95.2-90.8s86-32.8,136.1-32.8c80.5,0,142.5,18.6,186,55.8s65.2,90.6,65.2,160.2c0,29.3-5.5,57.9-16.4,85.7
				c-10.9,27.8-27.9,57-50.9,87.5s-60.1,71.4-111.3,122.6l-96.2,111.1h293.2V1338z"/>
		</g>
		<g>
			<g>
				<path class="st2" d="M698,896l116.2-236.3H1010l-198.7,352.6l204.1,358.4H817.6L698,1129.9l-119.6,240.8H381.1l203.6-358.4
					L386.5,659.6h195.3L698,896z"/>
				<path class="st2" d="M1253.7,1370.6h-170.9v-711h170.9V1370.6z"/>
				<path class="st2" d="M1555.4,1370.6h-170.9v-711h170.9V1370.6z"/>
			</g>
			<g>
				<path class="st3" d="M289.2,1085.7v-2.2h7.3c2.6,0,4.8-0.4,6.8-1.3c1.9-0.9,3.6-2.4,5.1-4.7c1.4-2.3,2.7-5.4,3.9-9.2l38.5-136.1
					h29.5l42.1,137.6c1,3.3,2.2,6,3.5,8.1c1.4,2.1,2.8,3.5,4.4,4.4c1.6,0.9,3.5,1.3,5.8,1.3h1.3v2.2h-69.7v-2.2h9.2
					c3,0,5.1-0.6,6.2-1.9c1.1-1.3,1.7-3,1.7-5.2c0-1.1-0.1-2.3-0.4-3.4c-0.3-1.1-0.6-2.3-0.9-3.5c-0.3-1.2-0.6-2.5-0.9-3.8
					l-9.7-36.3h-47.7l-9,32.7c-0.7,2.2-1.3,4.1-1.6,5.8c-0.4,1.7-0.7,3.3-1,4.7c-0.3,1.4-0.4,2.7-0.4,3.9c0,2.4,0.6,4.2,1.8,5.4
					c1.2,1.1,3.1,1.7,5.7,1.7h13.5v2.2H289.2z M326,1027.2h46.4L357,968.5c-0.7-2.7-1.5-5.6-2.3-8.5c-0.8-2.9-1.6-6-2.4-9.2
					c-0.8-3.2-1.6-6.6-2.5-10c-0.3,2.4-0.8,4.8-1.4,7.1c-0.6,2.3-1.3,4.6-1.9,6.9c-0.6,2.3-1.3,4.5-1.8,6.7
					c-0.6,2.1-1.1,4.3-1.7,6.5L326,1027.2z"/>
				<path class="st3" d="M441.5,1085.7v-2.2h11c2.9,0,5.1-0.4,6.7-1.1c1.6-0.7,2.8-2.1,3.5-4.1c0.8-2,1.2-4.7,1.2-8.2V946.8
					c0-3.3-0.4-5.8-1.1-7.6c-0.7-1.8-1.8-3-3.1-3.8c-1.4-0.7-3-1.1-5.1-1.1h-13.1v-2.1h56.8l64.5,114.4v-99.8c0-3.2-0.3-5.6-0.9-7.4
					c-0.6-1.8-1.5-3.1-2.9-3.9c-1.4-0.8-3.1-1.2-5.3-1.2h-15v-2.1H589v2.1h-14.6c-2.1,0-3.9,0.4-5.3,1.2c-1.4,0.8-2.4,2.2-3.1,4.2
					c-0.7,2-1.1,4.7-1.1,8v138h-18.3l-80.6-143v127.5c0,3.4,0.2,6.2,0.8,8.2c0.5,2,1.4,3.4,2.8,4.1c1.4,0.7,3.2,1.1,5.5,1.1h15v2.2
					H441.5z"/>
				<path class="st3" d="M594.5,1085.7v-2.2h9.5c2,0,3.5-0.4,4.6-1.1c1.1-0.7,1.9-1.9,2.5-3.4c0.6-1.6,0.9-3.7,0.9-6.5V946.4
					c0-3-0.3-5.4-0.9-7.2c-0.6-1.8-1.4-3-2.5-3.8c-1.1-0.7-2.6-1.1-4.6-1.1h-9.5v-2.1h73.1v2.1h-9.9c-1.9,0-3.4,0.4-4.5,1.2
					c-1.1,0.8-2,2.1-2.5,3.9c-0.5,1.8-0.8,4.2-0.8,7.2v125.6c0,2.7,0.2,4.9,0.8,6.7c0.5,1.7,1.3,2.9,2.5,3.7
					c1.1,0.7,2.7,1.1,4.5,1.1h9.9v2.2H594.5z"/>
				<path class="st3" d="M685.9,944.2c-0.7-2.6-1.5-4.6-2.5-6c-0.9-1.4-2.1-2.4-3.4-3c-1.4-0.6-2.9-0.9-4.6-0.9h-4.1v-2.1h68.6v2.1
					h-9.5c-2.4,0-4.1,0.5-5.1,1.4c-0.9,0.9-1.4,2.3-1.4,4.2c0,0.7,0.1,1.6,0.2,2.8c0.1,1.1,0.4,2.4,0.6,3.9c0.3,1.4,0.6,2.9,1.1,4.5
					l19.6,74c0.7,2.3,1.5,5.3,2.5,9.1c0.9,3.8,1.9,7.7,2.8,11.8c0.9,4.1,1.8,7.9,2.7,11.5c0.9,3.6,1.4,6.2,1.5,8
					c0.9-3.7,1.7-7.2,2.6-10.4c0.9-3.2,1.8-6.7,2.7-10.5c0.9-3.8,2-8.2,3.1-13.2l18.7-72c0.7-3.2,1.3-5.8,1.8-7.8
					c0.5-2.1,0.8-3.9,1-5.5c0.1-1.6,0.2-3,0.2-4.3c0-2.6-0.8-4.4-2.5-5.6c-1.6-1.1-4.5-1.7-8.5-1.7H764v-2.1h43.2v2.1h-6.7
					c-2.4,0-4.5,0.3-6.1,1c-1.6,0.6-3,1.8-4,3.5c-1,1.7-2,4.2-3,7.3l-35.7,139.5h-24.3L685.9,944.2z"/>
				<path class="st3" d="M811.3,1085.7v-2.2h7.1c2,0,3.8-0.4,5.4-1.1c1.6-0.7,2.8-2,3.7-3.8c0.9-1.8,1.3-4.3,1.3-7.4V947.7
					c0-4-0.5-7-1.4-8.8c-0.9-1.9-2.2-3.1-3.8-3.7c-1.6-0.6-3.3-0.9-5.2-0.9h-7.1v-2.1h112l1.3,40.2h-2.1l-0.6-7.3
					c-0.7-7.6-2.3-13.6-4.7-18.1c-2.4-4.4-6.1-7.7-10.9-9.7c-4.8-2-11.1-3-19-3h-20.6v70.1h47.7v2.1h-47.7v77h27.3
					c7.6,0,13.8-1,18.6-3c4.8-2,8.5-5.3,11.1-9.8s4.2-10.6,4.7-18.2l0.4-7.1h2.1l-1.3,40.2H811.3z"/>
				<path class="st3" d="M939.6,1085.7v-2.2h7.3c2.1,0,4-0.4,5.5-1.1c1.5-0.7,2.7-1.9,3.4-3.7c0.8-1.7,1.2-4.2,1.2-7.5V946.8
					c0-3.3-0.4-5.8-1.3-7.6c-0.9-1.8-2-3-3.5-3.8c-1.5-0.7-3.3-1.1-5.3-1.1h-7.3v-2.1h68.6c14.2,0,25.4,1.6,33.8,4.9
					c8.3,3.3,14.3,8,18,14.1c3.7,6.1,5.5,13.3,5.5,21.6c0,8.2-1.3,14.9-3.9,20.2c-2.6,5.3-6.1,9.5-10.4,12.6
					c-4.4,3.1-9.4,5.4-15.2,7l24.3,45.1c3.3,6.2,6,11,8.1,14.4c2.1,3.4,3.7,6,4.8,7.6c1.1,1.6,2.1,2.7,2.9,3.1
					c0.8,0.4,1.5,0.6,2,0.6h0.4v2.2h-9.5c-6.4,0-12.1-0.3-17-0.9c-4.9-0.6-9.1-1.6-12.7-3.1c-3.6-1.5-6.7-3.6-9.2-6.2
					c-2.6-2.7-4.8-6-6.7-10l-23.2-51.4h-4.9v57.2c0,3.3,0.3,5.8,1,7.5s1.6,2.9,3,3.7c1.4,0.7,3,1.1,5.1,1.1h4.7v2.2H939.6z
					 M1003.5,1012c5.3,0,9.5-1.3,12.6-4c3.1-2.7,5.3-6.8,6.7-12.6c1.4-5.7,2-13.2,2-22.4c0-9.6-0.7-17.2-2.1-22.7
					c-1.4-5.5-3.7-9.6-6.9-12.1c-3.2-2.6-7.3-3.9-12.5-3.9h-8v77.6H1003.5z"/>
				<path class="st3" d="M1132.7,1087.8c-10.2,0-18.5-1-25-2.9c-6.5-1.9-11.5-4.4-15.1-7.5c-3.5-3.1-5.9-6.3-7.2-9.8
					c-1.3-3.4-1.9-6.7-1.9-9.9c0-5.7,1.2-10.2,3.5-13.3c2.4-3.2,5.5-5.4,9.4-6.7s8-1.9,12.3-1.9c0,11.2,1,20.5,3.1,27.8
					c2.1,7.4,5.3,12.9,9.7,16.4c4.4,3.6,9.9,5.4,16.7,5.4c7.7,0,13.7-2.2,17.7-6.6c4.1-4.4,6.1-10.5,6.1-18.4c0-7.5-1.6-13.4-4.9-18
					c-3.3-4.5-7.8-8.3-13.4-11.5c-5.7-3.2-12.1-6.4-19.5-9.7c-6.2-3-11.6-6.2-16.3-9.5c-4.7-3.3-8.6-6.8-11.5-10.5
					c-2.9-3.7-5.2-7.8-6.7-12.3c-1.5-4.4-2.3-9.2-2.3-14.4c0-9.5,2.3-17.5,6.9-24.2c4.6-6.7,10.8-11.8,18.5-15.3
					c7.7-3.5,16.4-5.3,26-5.3c10.2,0,18.5,1.3,25,4c6.5,2.7,11.3,6,14.4,10.1c3.1,4.1,4.6,8.4,4.6,13c0,5-2,9.2-6.1,12.6
					c-4.1,3.4-11.3,5.1-21.6,5.1c0-14.8-1.6-25.5-4.9-32.4c-3.3-6.8-8.6-10.2-15.9-10.2c-3.4,0-6.8,0.8-10,2.4
					c-3.2,1.6-5.9,4.1-8,7.5c-2.1,3.4-3.1,8-3.1,13.5c0,5.6,1.2,10.4,3.7,14.4c2.4,4,6.4,7.7,11.9,11.2c5.5,3.4,12.9,7.3,22.3,11.6
					c8.7,3.9,15.8,8.1,21.2,12.6c5.4,4.5,9.4,9.5,12,14.9c2.7,5.4,4,11.9,4,19.4c0,9.7-2.3,18.2-6.9,25.4
					c-4.6,7.2-11,12.8-19.2,16.8C1153.8,1085.8,1144,1087.8,1132.7,1087.8z"/>
				<path class="st3" d="M1192.2,1085.7v-2.2h7.3c2.6,0,4.8-0.4,6.8-1.3c1.9-0.9,3.6-2.4,5.1-4.7c1.4-2.3,2.7-5.4,3.9-9.2
					l38.5-136.1h29.5l42.1,137.6c1,3.3,2.2,6,3.5,8.1c1.4,2.1,2.8,3.5,4.4,4.4c1.6,0.9,3.5,1.3,5.8,1.3h1.3v2.2h-69.7v-2.2h9.2
					c3,0,5.1-0.6,6.2-1.9c1.1-1.3,1.7-3,1.7-5.2c0-1.1-0.1-2.3-0.4-3.4c-0.3-1.1-0.6-2.3-0.9-3.5c-0.3-1.2-0.6-2.5-0.9-3.8
					l-9.7-36.3h-47.7l-9,32.7c-0.7,2.2-1.3,4.1-1.6,5.8c-0.4,1.7-0.7,3.3-1,4.7c-0.3,1.4-0.4,2.7-0.4,3.9c0,2.4,0.6,4.2,1.8,5.4
					c1.2,1.1,3.1,1.7,5.7,1.7h13.5v2.2H1192.2z M1229,1027.2h46.4l-15.5-58.7c-0.7-2.7-1.5-5.6-2.3-8.5c-0.8-2.9-1.6-6-2.4-9.2
					c-0.8-3.2-1.6-6.6-2.5-10c-0.3,2.4-0.8,4.8-1.4,7.1c-0.6,2.3-1.3,4.6-1.9,6.9c-0.6,2.3-1.3,4.5-1.8,6.7
					c-0.6,2.1-1.1,4.3-1.7,6.5L1229,1027.2z"/>
				<path class="st3" d="M1344.5,1085.7v-2.2h7.3c2.2,0,4-0.4,5.5-1.1c1.5-0.7,2.7-1.9,3.4-3.7c0.8-1.7,1.2-4.2,1.2-7.5V946.8
					c0-3.3-0.4-5.8-1.3-7.6c-0.9-1.8-2-3-3.5-3.8c-1.5-0.7-3.3-1.1-5.3-1.1h-7.3v-2.1h68.6c14.2,0,25.4,1.6,33.8,4.9
					c8.3,3.3,14.3,8,18,14.1c3.7,6.1,5.5,13.3,5.5,21.6c0,8.2-1.3,14.9-3.9,20.2c-2.6,5.3-6.1,9.5-10.4,12.6
					c-4.4,3.1-9.4,5.4-15.2,7l24.3,45.1c3.3,6.2,6,11,8.1,14.4c2.1,3.4,3.7,6,4.8,7.6c1.1,1.6,2.1,2.7,2.9,3.1
					c0.8,0.4,1.5,0.6,2,0.6h0.4v2.2h-9.5c-6.4,0-12.1-0.3-17-0.9c-4.9-0.6-9.1-1.6-12.7-3.1c-3.6-1.5-6.7-3.6-9.2-6.2
					c-2.6-2.7-4.8-6-6.7-10l-23.2-51.4h-4.9v57.2c0,3.3,0.3,5.8,1,7.5c0.6,1.7,1.6,2.9,3,3.7c1.4,0.7,3,1.1,5.1,1.1h4.7v2.2H1344.5z
					 M1408.3,1012c5.3,0,9.5-1.3,12.6-4c3.1-2.7,5.3-6.8,6.7-12.6c1.4-5.7,2-13.2,2-22.4c0-9.6-0.7-17.2-2.1-22.7
					c-1.4-5.5-3.7-9.6-6.9-12.1c-3.2-2.6-7.3-3.9-12.5-3.9h-8v77.6H1408.3z"/>
				<path class="st3" d="M1487.6,1085.7v-2.2h9.5c2,0,3.5-0.4,4.6-1.1c1.1-0.7,1.9-1.9,2.5-3.4c0.6-1.6,0.9-3.7,0.9-6.5V946.4
					c0-3-0.3-5.4-0.9-7.2c-0.6-1.8-1.4-3-2.5-3.8c-1.1-0.7-2.6-1.1-4.6-1.1h-9.5v-2.1h73.1v2.1h-9.9c-1.9,0-3.4,0.4-4.5,1.2
					c-1.1,0.8-2,2.1-2.5,3.9c-0.5,1.8-0.8,4.2-0.8,7.2v125.6c0,2.7,0.2,4.9,0.8,6.7c0.5,1.7,1.3,2.9,2.5,3.7
					c1.1,0.7,2.7,1.1,4.5,1.1h9.9v2.2H1487.6z"/>
				<path class="st3" d="M1642.4,1087.8c-15,0-27.6-3.3-37.7-9.9c-10.1-6.6-17.6-15.8-22.6-27.7c-4.9-11.9-7.4-25.8-7.4-41.7
					c0-15.9,2.5-29.7,7.4-41.5c4.9-11.8,12.5-20.9,22.6-27.4c10.1-6.5,22.8-9.8,37.9-9.8c14.5,0,26.7,3.3,36.7,9.8
					c10,6.5,17.6,15.7,22.8,27.5c5.2,11.8,7.8,25.7,7.8,41.6s-2.6,29.8-7.8,41.6c-5.2,11.8-12.9,21-22.9,27.6
					C1669.2,1084.6,1656.9,1087.8,1642.4,1087.8z M1642.4,1085.7c5.3,0,9.7-1.3,13.2-3.8c3.5-2.5,6.3-6.6,8.5-12.4
					c2.2-5.7,3.7-13.6,4.5-23.5c0.9-10,1.3-22.4,1.3-37.3c0-14.8-0.4-27.1-1.3-37.1c-0.9-10-2.4-17.8-4.5-23.5
					c-2.1-5.7-5-9.9-8.5-12.4c-3.5-2.5-7.8-3.8-13-3.8s-9.5,1.3-13.1,3.8c-3.6,2.5-6.5,6.6-8.7,12.4c-2.2,5.7-3.8,13.6-4.7,23.5
					c-0.9,10-1.4,22.3-1.4,37.1c0,14.9,0.5,27.3,1.4,37.3c0.9,10,2.5,17.8,4.6,23.7s5,9.9,8.5,12.4
					C1632.7,1084.5,1637.1,1085.7,1642.4,1085.7z"/>
			</g>
		</g>
	</g>
</g>
</svg>
